<svg width="16" height="16" viewBox="0 0 16 16" fill="none" xmlns="http://www.w3.org/2000/svg">
<path d="M8.00326 4.33317C9.84326 4.33317 11.3366 5.8265 11.3366 7.6665C11.3366 8.09984 11.2499 8.5065 11.0966 8.8865L13.0433 10.8332C14.0499 9.99317 14.8433 8.9065 15.3299 7.6665C14.1766 4.73984 11.3299 2.6665 7.99659 2.6665C7.06326 2.6665 6.16992 2.83317 5.34326 3.13317L6.78326 4.57317C7.16326 4.41984 7.56992 4.33317 8.00326 4.33317ZM1.33659 2.51317L3.16326 4.33984C2.05659 5.19984 1.18992 6.3465 0.669922 7.6665C1.82326 10.5932 4.66992 12.6665 8.00326 12.6665C9.03659 12.6665 10.0233 12.4665 10.9233 12.1065L11.2033 12.3865L13.1566 14.3332L14.0033 13.4865L2.18326 1.6665L1.33659 2.51317ZM5.02326 6.19984L6.05659 7.23317C6.02326 7.37317 6.00326 7.51984 6.00326 7.6665C6.00326 8.77317 6.89659 9.6665 8.00326 9.6665C8.14992 9.6665 8.29659 9.6465 8.43659 9.61317L9.46992 10.6465C9.02326 10.8665 8.52992 10.9998 8.00326 10.9998C6.16326 10.9998 4.66992 9.5065 4.66992 7.6665C4.66992 7.13984 4.80326 6.6465 5.02326 6.19984ZM7.89659 5.67984L9.99659 7.77984L10.0099 7.67317C10.0099 6.5665 9.11659 5.67317 8.00992 5.67317L7.89659 5.67984Z" fill="#677A8E"/>
</svg>
