<svg width="21" height="20" viewBox="0 0 21 20" fill="none" xmlns="http://www.w3.org/2000/svg">
<g clip-path="url(#clip0_4740_8485)">
<path d="M19.674 9.71058C19.674 8.93171 19.6121 8.36334 19.4782 7.77393H10.7725V11.2894H15.8825C15.7796 12.163 15.2232 13.4787 13.9869 14.3628L13.9695 14.4805L16.7221 16.659L16.9128 16.6784C18.6643 15.0259 19.674 12.5945 19.674 9.71058Z" fill="#4285F4"/>
<path d="M10.7724 18.9729C13.2759 18.9729 15.3776 18.1308 16.9128 16.6783L13.9868 14.3627C13.2038 14.9205 12.1529 15.31 10.7724 15.31C8.32036 15.31 6.23924 13.6575 5.49738 11.3735L5.38864 11.383L2.52644 13.6459L2.48901 13.7522C4.01379 16.8467 7.14581 18.9729 10.7724 18.9729Z" fill="#34A853"/>
<path d="M5.4974 11.3736C5.30165 10.7842 5.18836 10.1526 5.18836 9.50004C5.18836 8.84742 5.30165 8.21592 5.4871 7.62651L5.48191 7.50098L2.58385 5.20166L2.48903 5.24774C1.8606 6.53185 1.5 7.97386 1.5 9.50004C1.5 11.0262 1.8606 12.4682 2.48903 13.7523L5.4974 11.3736Z" fill="#FBBC05"/>
<path d="M10.7724 3.69016C12.5135 3.69016 13.688 4.45851 14.3577 5.1006L16.9746 2.49029C15.3674 0.964108 13.2759 0.0273438 10.7724 0.0273438C7.14581 0.0273438 4.01379 2.15346 2.48901 5.2479L5.48708 7.62667C6.23924 5.34267 8.32036 3.69016 10.7724 3.69016Z" fill="#EB4335"/>
</g>
<defs>
<clipPath id="clip0_4740_8485">
<rect x="1.5" width="18.1739" height="19" rx="9.08696" fill="white"/>
</clipPath>
</defs>
</svg>
