<svg width="24" height="24" viewBox="0 0 24 24" fill="none" xmlns="http://www.w3.org/2000/svg">
<path d="M13.4031 3.00154C8.3131 2.86154 4.1431 6.95154 4.1431 12.0015H2.3531C1.9031 12.0015 1.6831 12.5415 2.0031 12.8515L4.7931 15.6515C4.9931 15.8515 5.3031 15.8515 5.5031 15.6515L8.2931 12.8515C8.6031 12.5415 8.3831 12.0015 7.9331 12.0015H6.1431C6.1431 8.10154 9.3231 4.95154 13.2431 5.00154C16.9631 5.05154 20.0931 8.18154 20.1431 11.9015C20.1931 15.8115 17.0431 19.0015 13.1431 19.0015C11.5331 19.0015 10.0431 18.4515 8.8631 17.5215C8.4631 17.2115 7.9031 17.2415 7.5431 17.6015C7.1231 18.0215 7.1531 18.7315 7.6231 19.0915C9.1431 20.2915 11.0531 21.0015 13.1431 21.0015C18.1931 21.0015 22.2831 16.8315 22.1431 11.7415C22.0131 7.05154 18.0931 3.13154 13.4031 3.00154ZM12.8931 8.00154C12.4831 8.00154 12.1431 8.34154 12.1431 8.75154V12.4315C12.1431 12.7815 12.3331 13.1115 12.6331 13.2915L15.7531 15.1415C16.1131 15.3515 16.5731 15.2315 16.7831 14.8815C16.9931 14.5215 16.8731 14.0615 16.5231 13.8515L13.6431 12.1415V8.74154C13.6431 8.34154 13.3031 8.00154 12.8931 8.00154Z" fill="#31475E"/>
</svg>
