<svg width="20" height="20" viewBox="0 0 20 20" fill="none" xmlns="http://www.w3.org/2000/svg">
<path d="M10.0007 5.00016C10.9173 5.00016 11.6673 5.75016 11.6673 6.66683C11.6673 7.5835 10.9173 8.3335 10.0007 8.3335C9.08398 8.3335 8.33398 7.5835 8.33398 6.66683C8.33398 5.75016 9.08398 5.00016 10.0007 5.00016ZM10.0007 13.3335C12.2507 13.3335 14.834 14.4085 15.0007 15.0002H5.00065C5.19232 14.4002 7.75898 13.3335 10.0007 13.3335ZM10.0007 3.3335C8.15898 3.3335 6.66732 4.82516 6.66732 6.66683C6.66732 8.5085 8.15898 10.0002 10.0007 10.0002C11.8423 10.0002 13.334 8.5085 13.334 6.66683C13.334 4.82516 11.8423 3.3335 10.0007 3.3335ZM10.0007 11.6668C7.77565 11.6668 3.33398 12.7835 3.33398 15.0002V16.6668H16.6673V15.0002C16.6673 12.7835 12.2257 11.6668 10.0007 11.6668Z" fill="#31475E"/>
</svg>
