<svg width="21" height="20" viewBox="0 0 21 20" fill="none" xmlns="http://www.w3.org/2000/svg">
<path d="M16.0846 6.66667H15.2513V2.5H5.2513V6.66667H4.41797C3.03464 6.66667 1.91797 7.78333 1.91797 9.16667V14.1667H5.2513V17.5H15.2513V14.1667H18.5846V9.16667C18.5846 7.78333 17.468 6.66667 16.0846 6.66667ZM6.91797 4.16667H13.5846V6.66667H6.91797V4.16667ZM13.5846 15.8333H6.91797V12.5H13.5846V15.8333ZM15.2513 12.5V10.8333H5.2513V12.5H3.58464V9.16667C3.58464 8.70833 3.95964 8.33333 4.41797 8.33333H16.0846C16.543 8.33333 16.918 8.70833 16.918 9.16667V12.5H15.2513Z" fill="#677A8E"/>
<path d="M15.2513 10.4167C15.7115 10.4167 16.0846 10.0436 16.0846 9.58333C16.0846 9.1231 15.7115 8.75 15.2513 8.75C14.7911 8.75 14.418 9.1231 14.418 9.58333C14.418 10.0436 14.7911 10.4167 15.2513 10.4167Z" fill="#677A8E"/>
</svg>
