<svg width="21" height="20" viewBox="0 0 21 20" fill="none" xmlns="http://www.w3.org/2000/svg">
<path d="M20.334 3.18L8.92398 14.6L4.68398 10.36L6.09398 8.95L8.92398 11.78L18.924 1.78L20.334 3.18ZM18.124 8.22C18.254 8.79 18.334 9.39 18.334 10C18.334 14.42 14.754 18 10.334 18C5.91398 18 2.33398 14.42 2.33398 10C2.33398 5.58 5.91398 2 10.334 2C11.914 2 13.374 2.46 14.614 3.25L16.054 1.81C14.434 0.67 12.464 0 10.334 0C4.81398 0 0.333984 4.48 0.333984 10C0.333984 15.52 4.81398 20 10.334 20C15.854 20 20.334 15.52 20.334 10C20.334 8.81 20.114 7.67 19.734 6.61L18.124 8.22Z" fill="#F75252"/>
</svg>
