<svg width="20" height="20" viewBox="0 0 20 20" fill="none" xmlns="http://www.w3.org/2000/svg">
<path d="M11.668 5.41668V3.75001H8.33464V5.41668H11.668ZM3.33464 7.08334V16.25H16.668V7.08334H3.33464ZM16.668 5.41668C17.593 5.41668 18.3346 6.15834 18.3346 7.08334V16.25C18.3346 17.175 17.593 17.9167 16.668 17.9167H3.33464C2.40964 17.9167 1.66797 17.175 1.66797 16.25L1.6763 7.08334C1.6763 6.15834 2.40964 5.41668 3.33464 5.41668H6.66797V3.75001C6.66797 2.82501 7.40964 2.08334 8.33464 2.08334H11.668C12.593 2.08334 13.3346 2.82501 13.3346 3.75001V5.41668H16.668Z" fill="#31475E"/>
</svg>
